<?xml version="1.0" standalone="no"?>
<!DOCTYPE svg PUBLIC "-//W3C//DTD SVG 20010904//EN"
 "http://www.w3.org/TR/2001/REC-SVG-20010904/DTD/svg10.dtd">
<svg version="1.0" xmlns="http://www.w3.org/2000/svg"
 width="300.000000pt" height="300.000000pt" viewBox="0 0 300.000000 300.000000"
 preserveAspectRatio="xMidYMid meet">
<metadata>
Created by potrace 1.10, written by Peter Selinger 2001-2011
</metadata>
<g transform="translate(0.000000,300.000000) scale(0.100000,-0.100000)"
fill="#000000" stroke="none">
<path d="M2200 2230 c-46 -46 -40 -54 275 -370 l295 -295 -1359 3 c-1310 2
-1359 2 -1381 -16 -32 -26 -32 -78 0 -104 22 -17 72 -18 1381 -16 748 2 1359
3 1359 2 0 0 -131 -131 -290 -290 -164 -163 -294 -300 -297 -313 -10 -39 17
-76 57 -79 34 -3 49 11 394 357 321 321 359 363 359 391 0 28 -38 70 -359 391
-384 384 -387 386 -434 339z m417 -373 c189 -189 343 -349 343 -357 0 -8 -154
-169 -343 -357 -244 -245 -349 -343 -365 -343 -14 0 -22 6 -22 17 0 9 126 144
280 299 178 179 280 288 280 301 0 11 -8 27 -18 36 -17 15 -132 17 -1365 19
-1390 3 -1396 3 -1359 41 10 9 298 13 1359 15 1232 2 1348 4 1365 19 10 9 18
25 18 36 0 13 -102 122 -280 301 -154 155 -280 290 -280 299 0 11 8 17 22 17
17 0 119 -96 365 -343z"/>
</g>
</svg>
